# xmcd
#
# Track frame offsets:
# 150
# 20058
# 34666
# 56824
# 74969
# 90277
# 102573
# 122798
# 137885
# 156018
# 173876
# 186009
# 207779
# 224387
# 236745
#
# Disc length: 3335 seconds
#
#
# Revision: 0
# Processed by: cddbd v1.5.1PL0 Copyright (c) Steve Scherf et al.
# Submitted via: FreeRIP 2.80 
#
DISCID=e10d050f
DTITLE=Jeff Bruce - Rule No 1
DYEAR=2002
DGENRE=Folk/Rock
TTITLE0=Mt Tamworth Girl
TTITLE1=Gone Fishing
TTITLE2=Sweet Perfume
TTITLE3=Middle Lagoon
TTITLE4=The Amazing Green Touring Wagon
TTITLE5=Go With The Flow
TTITLE6=Come Back To Me
TTITLE7=The Street Kids
TTITLE8=To LOve Another Day
TTITLE9=She's As Sweet As Can Be
TTITLE10=No Better Place
TTITLE11=Missing You
TTITLE12=Horny Angel
TTITLE13=The Black Widow Spider
TTITLE14=The Cops
EXTD=
EXTT0=
EXTT1=
EXTT2=
EXTT3=
EXTT4=
EXTT5=
EXTT6=
EXTT7=
EXTT8=
EXTT9=
EXTT10=
EXTT11=
EXTT12=
EXTT13=
EXTT14=
PLAYORDER=
